<?xml version="1.0" encoding="UTF-8" standalone="no"?>
<!-- Created with Inkscape (http://www.inkscape.org/) -->

<svg
   width="67.176819mm"
   height="71.017632mm"
   viewBox="0 0 67.176819 71.017632"
   version="1.1"
   id="svg1"
   xml:space="preserve"
   inkscape:version="1.4 (e7c3feb100, 2024-10-09)"
   sodipodi:docname="logo.svg"
   xmlns:inkscape="http://www.inkscape.org/namespaces/inkscape"
   xmlns:sodipodi="http://sodipodi.sourceforge.net/DTD/sodipodi-0.dtd"
   xmlns="http://www.w3.org/2000/svg"
   xmlns:svg="http://www.w3.org/2000/svg"><sodipodi:namedview
     id="namedview1"
     pagecolor="#ffffff"
     bordercolor="#000000"
     borderopacity="0"
     inkscape:showpageshadow="2"
     inkscape:pageopacity="0.0"
     inkscape:pagecheckerboard="0"
     inkscape:deskcolor="#d1d1d1"
     inkscape:document-units="mm"
     inkscape:zoom="1.5803732"
     inkscape:cx="70.236576"
     inkscape:cy="60.745147"
     inkscape:window-width="1916"
     inkscape:window-height="1024"
     inkscape:window-x="0"
     inkscape:window-y="0"
     inkscape:window-maximized="1"
     inkscape:current-layer="layer1"><inkscape:page
       x="0"
       y="0"
       width="67.176819"
       height="71.017632"
       id="page2"
       margin="0"
       bleed="0" /></sodipodi:namedview><defs
     id="defs1" /><g
     inkscape:label="Capa 1"
     inkscape:groupmode="layer"
     id="layer1"
     transform="translate(-2.8733631,-1.1108019)"><path
       id="path1"
       style="fill:#ffa500;fill-opacity:0.638889;stroke:#000000;stroke-width:0.8;stroke-dasharray:none;stroke-opacity:1"
       d="M 36.448245,1.5108019 A 23.936942,23.936942 0 0 0 12.510958,25.447562 23.936942,23.936942 0 0 0 36.448245,49.384342 23.936942,23.936942 0 0 0 60.385015,25.447562 23.936942,23.936942 0 0 0 36.448245,1.5108019 Z" /><g
       id="g4"
       transform="translate(-67.302142,-107.64994)"
       style="fill:#4059bf;fill-opacity:1;stroke-width:0.8;stroke-dasharray:none"><path
         style="fill:#4059bf;fill-opacity:1;stroke:#000000;stroke-width:0.80002;stroke-dasharray:none;stroke-opacity:1"
         id="path3"
         sodipodi:type="arc"
         sodipodi:cx="-104.93745"
         sodipodi:cy="-179.72243"
         sodipodi:rx="33.148232"
         sodipodi:ry="22.100693"
         sodipodi:start="6.2705026"
         sodipodi:end="3.1415927"
         sodipodi:arc-type="arc"
         d="m -71.791881,-180.00272 a 33.148232,22.100693 0 0 1 -16.329322,19.32594 33.148232,22.100693 0 0 1 -33.268847,0.14066 33.148232,22.100693 0 0 1 -16.69563,-19.18631"
         sodipodi:open="true"
         transform="matrix(-0.99999491,0.0031916,0.00674921,-0.99997722,0,0)" /><path
         style="fill:#4059bf;fill-opacity:1;stroke:#000000;stroke-width:0.8;stroke-dasharray:none;stroke-opacity:1"
         d="M 70.901634,179.22125 H 137.35232 Z"
         id="path4" /></g><g
       id="g8"
       transform="matrix(1.0483802,0,0,1.0483802,-75.686357,-119.95676)"
       style="fill:#000000;fill-opacity:0.5;stroke-width:0.5;stroke-dasharray:none"><g
         id="g6"
         style="fill:#000000;fill-opacity:0.5;stroke-width:0.5;stroke-dasharray:none"><path
           id="path1-2"
           style="fill:#000000;fill-opacity:0.5;stroke:#000000;stroke-width:0.5;stroke-dasharray:none;stroke-opacity:1"
           d="m 101.35819,140.38224 a 2.3423615,2.3423615 0 0 0 -2.342407,2.34235 2.3423615,2.3423615 0 0 0 2.342407,2.34235 2.3423615,2.3423615 0 0 0 2.34234,-2.34235 2.3423615,2.3423615 0 0 0 -2.34234,-2.34235 z" /><path
           style="fill:#000000;fill-opacity:0.5;stroke:#000000;stroke-width:0.5;stroke-dasharray:none;stroke-opacity:1"
           d="m 90.444298,139.04035 1.89008,-3.27371 2.229236,1.28705 2.350632,-1.84252 -0.690599,-2.69962 3.745984,-0.98358 0.795239,2.59498 2.97167,0.23021 1.36027,-2.30201 3.32744,1.92532 -1.31842,2.51127 1.73697,2.23922 2.51127,-0.71153 1.04637,3.76691 -2.63684,0.71153 -0.16742,2.78333 2.34385,1.40213 -2.00901,3.51578 -2.36479,-1.40213 -2.15551,1.79975 0.73246,2.69962 -3.8297,1.04636 -0.7743,-2.67869 -2.887968,-0.31391 -1.318421,2.40664 -3.390217,-1.96717 1.29749,-2.36478 -1.77882,-2.36478 -2.636838,0.73245 -0.983581,-3.82969 2.553129,-0.75338 0.439473,-2.80426 z"
           id="path5" /></g><g
         id="g7"
         style="fill:#000000;fill-opacity:0.5;stroke-width:0.5;stroke-dasharray:none"><path
           id="path1-2-7"
           style="fill:#000000;fill-opacity:0.5;stroke:#000000;stroke-width:0.5;stroke-dasharray:none;stroke-opacity:1"
           d="m 115.36613,129.75018 a 1.6644993,1.6644993 0 0 0 -1.66453,1.66449 1.6644993,1.6644993 0 0 0 1.66453,1.66449 1.6644993,1.6644993 0 0 0 1.66448,-1.66449 1.6644993,1.6644993 0 0 0 -1.66448,-1.66449 z" /><path
           style="fill:#000000;fill-opacity:0.5;stroke:#000000;stroke-width:0.5;stroke-dasharray:none;stroke-opacity:1"
           d="m 108.11034,135.65065 1.95587,2.23547 1.47621,-1.27282 1.90438,0.94173 -0.14649,1.94624 2.80426,0.29298 0.2302,-2.02995 1.96716,-0.6906 1.36027,1.52769 2.19737,-1.86252 -1.3812,-1.59048 0.98358,-1.77882 1.98809,0.12557 0.16742,-2.88797 -1.94624,-0.16742 -0.50225,-2.02994 1.46491,-1.23471 -1.94624,-2.13458 -1.3812,1.23471 -1.98809,-1.04637 0.12556,-1.94624 -2.82518,-0.16742 -0.18835,1.92532 -1.92531,0.62781 -1.40213,-1.52769 -2.11365,1.90438 1.31842,1.63233 -1.04637,1.77882 -2.00902,-0.14649 -0.18834,2.78333 2.02994,0.25113 0.6069,2.09272 z"
           id="path6" /></g></g></g></svg>
